<svg width="16" height="16" viewBox="0 0 16 16" fill="none" xmlns="http://www.w3.org/2000/svg">
<g clip-path="url(#clip0_5812_5328)">
<path d="M12.2005 0.166992H15.2005C15.5672 0.166992 15.8672 0.466992 15.8672 0.833659V15.2003C15.8672 15.567 15.5672 15.867 15.2005 15.867H12.2005C11.8339 15.867 11.5339 15.567 11.5339 15.2003V0.833659C11.5339 0.466992 11.8339 0.166992 12.2005 0.166992Z" fill="#00AAFF"/>
<path d="M6.5013 4.5332H9.5013C9.86797 4.5332 10.168 4.8332 10.168 5.19987V15.1999C10.168 15.5665 9.86797 15.8665 9.5013 15.8665H6.5013C6.13464 15.8665 5.83464 15.5665 5.83464 15.1999V5.19987C5.86797 4.8332 6.13464 4.5332 6.5013 4.5332Z" fill="#00AAFF"/>
<path d="M0.833333 7.9668H3.83333C4.2 7.9668 4.5 8.2668 4.5 8.63346V15.2001C4.5 15.5668 4.2 15.8668 3.83333 15.8668H0.833333C0.466667 15.8668 0.166667 15.5668 0.166667 15.2001V8.60013C0.166667 8.2668 0.466667 7.9668 0.833333 7.9668Z" fill="#00AAFF"/>
</g>
<defs>
<clipPath id="clip0_5812_5328">
<rect width="16" height="16" fill="white" transform="matrix(-1 0 0 1 16 0)"/>
</clipPath>
</defs>
</svg>
