<svg width="16" height="16" viewBox="0 0 16 16" fill="none" xmlns="http://www.w3.org/2000/svg">
<g clip-path="url(#clip0_4997_13307)">
<path d="M8.66654 1.6013V0.834635C8.66654 0.467969 8.36654 0.167969 7.99987 0.167969C7.6332 0.167969 7.3332 0.467969 7.3332 0.834635V1.6013C5.99987 1.9013 5.0332 3.1013 5.0332 4.56797C5.0332 4.6013 5.0332 4.66797 5.0332 4.7013V6.53464H10.9332V4.66797C10.9332 4.63464 10.9332 4.56797 10.9332 4.53464C10.9665 3.1013 9.96654 1.9013 8.66654 1.6013Z" fill="#FF9D0A"/>
<path d="M1.86602 9.36719H0.832682C0.466016 9.36719 0.166016 9.66719 0.166016 10.0339V15.2005C0.166016 15.5672 0.466016 15.8672 0.832682 15.8672H1.89935V9.36719H1.86602Z" fill="#FF9D0A"/>
<path d="M15.1663 9.36719H14.0996V15.8339H15.1663C15.5329 15.8339 15.8329 15.5339 15.8329 15.1672V10.0339C15.8329 9.66719 15.5329 9.36719 15.1663 9.36719Z" fill="#FF9D0A"/>
<path d="M8.86602 13.2031H7.16602V15.8365H8.86602V13.2031Z" fill="#FF9D0A"/>
<path d="M3.19922 7.83594V9.36927V15.8359H3.86589H5.86589V12.5693C5.86589 12.2026 6.16589 11.9026 6.53255 11.9026H9.53255C9.89922 11.9026 10.1992 12.2026 10.1992 12.5693V15.8359H12.1992H12.8326V7.83594H3.19922Z" fill="#FF9D0A"/>
</g>
<defs>
<clipPath id="clip0_4997_13307">
<rect width="16" height="16" fill="white"/>
</clipPath>
</defs>
</svg>
