<svg width="40" height="40" viewBox="0 0 40 40" fill="none" xmlns="http://www.w3.org/2000/svg">
<path fill-rule="evenodd" clip-rule="evenodd" d="M38 12.5726V27.4274C38 29.2652 37.0194 30.9642 35.4286 31.8835L22.5714 39.3105C20.9806 40.2298 19.0194 40.2298 17.4286 39.3105L4.57143 31.8835C2.98057 30.9642 2 29.2661 2 27.4274V12.5726C2 10.7347 2.98057 9.0358 4.57143 8.11643L17.4286 0.689524C19.0194 -0.229841 20.9806 -0.229841 22.5714 0.689524L35.4286 8.11643C37.0194 9.0358 38 10.7339 38 12.5726ZM29.1814 16.1025C29.8278 15.7518 30.6326 15.9928 30.9832 16.6385C31.3329 17.2844 31.0921 18.0914 30.4475 18.4413L20.6332 23.7594C20.436 23.8657 20.2183 23.9197 20.0006 23.9197C19.7829 23.9197 19.5652 23.8657 19.368 23.7594L9.55376 18.4413C9.12518 18.208 8.85775 17.7595 8.85775 17.2715C8.85775 16.7835 9.12518 16.335 9.55288 16.1025L19.3672 10.7845C19.7623 10.5718 20.2389 10.5718 20.6332 10.7845L25.5403 13.444C26.1857 13.793 26.4258 14.6009 26.076 15.2467C25.9483 15.4817 25.7589 15.6617 25.5395 15.7801L25.5411 15.7827L18.4603 19.6197C18.2126 19.7534 18.2126 20.1094 18.4603 20.2431L19.5798 20.8495C19.8429 20.9919 20.16 20.9919 20.4232 20.8495L29.1814 16.1025ZM21.5418 14.3007L20.4223 13.6944C20.1592 13.552 19.842 13.552 19.5789 13.6944L13.5523 16.9602C13.3046 17.094 13.3046 17.4499 13.5523 17.5837L14.6717 18.19C14.9349 18.3324 15.252 18.3324 15.5152 18.19L21.5418 14.9242C21.7895 14.7904 21.7895 14.4345 21.5418 14.3007ZM19.3679 29.2155C19.565 29.3218 19.7827 29.3759 20.0004 29.3759C20.2182 29.3759 20.4359 29.3218 20.6322 29.2146L30.4464 23.8965C31.091 23.5475 31.3319 22.7396 30.9822 22.0938C30.6324 21.448 29.8267 21.207 29.1804 21.5578L20.4222 26.3047C20.159 26.447 19.8418 26.447 19.5787 26.3047L10.8196 21.5578C10.1082 21.1719 9.20214 21.5038 8.92699 22.3014C8.71186 22.9274 9.03757 23.6169 9.61957 23.9325L19.3679 29.2155Z" fill="#11252F"/>
</svg>
