<svg width="16" height="16" viewBox="0 0 16 16" fill="none" xmlns="http://www.w3.org/2000/svg">
<path d="M9.23294 0C8.86628 0 8.59961 0.3 8.59961 0.633333V3.46667C8.59961 3.83333 8.89961 4.1 9.23294 4.1C10.4663 4.1 11.4996 5.13333 11.5329 6.36667C11.5329 6.73333 11.8329 7 12.1663 7H14.9996C15.1663 7 15.3329 6.93333 15.4663 6.8C15.5996 6.66667 15.6663 6.5 15.6663 6.33333C15.6329 2.86667 12.7663 0 9.23294 0Z" fill="#00AAFF"/>
<path d="M5.93333 11.2662C4.93333 10.9662 4.2 10.0662 4.2 8.96623C4.2 7.66623 5.26667 6.59956 6.56667 6.59956C6.93333 6.59956 7.2 6.29956 7.2 5.96623V3.06623C7.2 2.69956 6.9 2.4329 6.56667 2.4329C2.93333 2.39956 0 5.36623 0 8.96623C0 12.3662 2.6 15.1662 5.93333 15.4996V11.2662Z" fill="#00AAFF"/>
<path d="M13.1326 8.93314C13.1326 8.56647 12.8326 8.2998 12.4992 8.2998H9.59922C9.43255 8.2998 9.26589 8.36647 9.13255 8.4998C8.99922 8.63314 8.93255 8.7998 8.93255 8.96647V8.9998C8.93255 10.0998 8.19922 10.9998 7.19922 11.2998V15.5331C10.5326 15.1998 13.1326 12.3998 13.1326 8.9998V8.93314Z" fill="#00AAFF"/>
</svg>
