<svg width="16" height="16" viewBox="0 0 16 16" fill="none" xmlns="http://www.w3.org/2000/svg">
<path d="M9.46654 5.70104C9.46654 4.86771 8.79987 4.23438 7.99987 4.23438C7.19987 4.23438 6.5332 4.90104 6.5332 5.70104C6.5332 6.50104 7.19987 7.16771 7.99987 7.16771C8.79987 7.16771 9.46654 6.50104 9.46654 5.70104Z" fill="#00C2FF"/>
<path d="M7.56745 14.268C7.70078 14.368 7.83412 14.4346 8.00078 14.4346C8.13411 14.4346 8.30078 14.368 8.43411 14.268C8.63411 14.1013 13.7341 9.8013 13.7341 6.43464C13.7008 2.96797 11.1341 0.167969 8.00078 0.167969C4.86745 0.167969 2.30078 2.96797 2.30078 6.43464C2.30078 9.8013 7.36745 14.068 7.56745 14.268ZM5.20078 5.7013C5.20078 4.16797 6.46745 2.9013 8.00078 2.9013C9.53411 2.9013 10.8008 4.16797 10.8008 5.7013C10.8008 7.23464 9.53411 8.5013 8.00078 8.5013C6.46745 8.5013 5.20078 7.23464 5.20078 5.7013Z" fill="#00C2FF"/>
<path d="M10.1345 14.5352H5.86784C5.50117 14.5352 5.20117 14.8352 5.20117 15.2018C5.20117 15.5685 5.50117 15.8685 5.86784 15.8685H10.1345C10.5012 15.8685 10.8012 15.5685 10.8012 15.2018C10.8012 14.8352 10.5012 14.5352 10.1345 14.5352Z" fill="#00C2FF"/>
</svg>
