<svg width="16" height="16" viewBox="0 0 16 16" fill="none" xmlns="http://www.w3.org/2000/svg">
<g clip-path="url(#clip0_5812_5544)">
<path d="M15.1003 0.166687H0.900326C0.500326 0.166687 0.166992 0.50002 0.166992 0.90002V6.20002C0.166992 6.60002 0.500326 6.93335 0.900326 6.93335H15.1003C15.5003 6.93335 15.8337 6.60002 15.8337 6.20002V0.90002C15.8337 0.50002 15.5003 0.166687 15.1003 0.166687ZM2.36699 4.26669H1.90033C1.50033 4.26669 1.20033 3.93335 1.20033 3.56669C1.20033 3.20002 1.53366 2.86669 1.90033 2.86669H2.36699C2.76699 2.86669 3.06699 3.20002 3.06699 3.56669C3.06699 3.93335 2.76699 4.26669 2.36699 4.26669ZM13.567 4.70002C13.567 5.10002 13.2337 5.40002 12.867 5.40002C12.467 5.40002 12.167 5.06669 12.167 4.70002V2.50002C12.167 2.10002 12.5003 1.80002 12.867 1.80002C13.267 1.80002 13.567 2.13335 13.567 2.50002V4.70002Z" fill="#7B5AFF"/>
<path d="M15.1003 9.03333H0.900326C0.500326 9.03333 0.166992 9.36666 0.166992 9.76666V15.0667C0.166992 15.4667 0.500326 15.8 0.900326 15.8H15.1003C15.5003 15.8 15.8337 15.4667 15.8337 15.0667V9.76666C15.8337 9.36666 15.5003 9.03333 15.1003 9.03333ZM2.36699 13.1667H1.90033C1.50033 13.1667 1.20033 12.8333 1.20033 12.4667C1.20033 12.1 1.53366 11.7667 1.90033 11.7667H2.36699C2.76699 11.7667 3.06699 12.1 3.06699 12.4667C3.06699 12.8333 2.76699 13.1667 2.36699 13.1667ZM13.567 13.5667C13.567 13.9667 13.2337 14.2667 12.867 14.2667C12.467 14.2667 12.167 13.9333 12.167 13.5667V11.3667C12.167 10.9667 12.5003 10.6667 12.867 10.6667C13.267 10.6667 13.567 11 13.567 11.3667V13.5667Z" fill="#7B5AFF"/>
</g>
<defs>
<clipPath id="clip0_5812_5544">
<rect width="16" height="16" fill="white"/>
</clipPath>
</defs>
</svg>
