<svg width="16" height="16" viewBox="0 0 16 16" fill="none" xmlns="http://www.w3.org/2000/svg">
<path d="M1.5163 7.69995V14.4333C1.5163 15.1 2.08296 15.6666 2.74963 15.6666H4.8163C5.8163 15.6666 6.6163 14.8666 6.6163 13.8666V10.6333H9.04963V13.8666C9.04963 14.8666 9.84963 15.6666 10.8496 15.6666H12.9163C13.583 15.6666 14.1496 15.1 14.1496 14.4333V7.69995H1.5163Z" fill="#FFC813"/>
<path d="M15.5163 4.46667L13.783 0.4C13.683 0.166667 13.4496 0 13.183 0H2.44962C2.18296 0 1.94962 0.166667 1.84962 0.4L0.116289 4.46667C-0.0837111 4.9 -0.0170445 5.43333 0.249622 5.83333C0.482956 6.2 0.882956 6.4 1.28296 6.4H14.4163C14.8163 6.4 15.2163 6.2 15.4496 5.83333C15.683 5.43333 15.7163 4.9 15.5163 4.46667Z" fill="#FFC813"/>
</svg>
