<svg width="13" height="16" viewBox="0 0 13 16" fill="none" xmlns="http://www.w3.org/2000/svg">
<path d="M12 1H10V0C8.9 0 8 0.9 8 2H5C5 0.9 4.1 0 3 0V1H1C0.4 1 0 1.4 0 2V15C0 15.6 0.4 16 1 16H12C12.6 16 13 15.6 13 15V2C13 1.4 12.6 1 12 1ZM11 14H2V3H3C3 3.6 3.4 4 4 4H9C9.6 4 10 3.6 10 3H11V14Z" fill="#E7688A"/>
<path d="M6.5 10C7.60457 10 8.5 9.10457 8.5 8C8.5 6.89543 7.60457 6 6.5 6C5.39543 6 4.5 6.89543 4.5 8C4.5 9.10457 5.39543 10 6.5 10Z" fill="#E7688A"/>
<path d="M6.5 11C5.6 11 4.8 10.6 4.2 9.9C3.8 10.4 3.5 11.2 3.5 12C3.5 12.5 3.8 13 4.2 13H8.7C9.1 13 9.4 12.6 9.4 12C9.4 11.2 9.1 10.4 8.7 9.9C8.2 10.5 7.4 11 6.5 11Z" fill="#E7688A"/>
</svg>
