<svg width="16" height="16" viewBox="0 0 16 16" fill="none" xmlns="http://www.w3.org/2000/svg">
<g clip-path="url(#clip0_5812_5344)">
<path d="M16 14.6C16 15.4 15.4 16 14.6 16H6C5.2 16 4.6 15.4 4.6 14.6C4.6 13.3 5.3 12 6.4 11.3C8.1 13.5 11.3 13.8 13.4 12.1C13.7 11.9 14 11.6 14.2 11.3C15.3 12 16 13.2 16 14.6ZM10.3 4.9C8.5 4.9 7.1 6.3 7.1 8.1C7.1 9.9 8.5 11.3 10.3 11.3C12.1 11.3 13.5 9.9 13.5 8.1C13.5 6.3 12.1 4.9 10.3 4.9ZM5.7 6.4C6.3 5 7.5 4 8.9 3.6C8.9 3.5 8.9 3.4 8.9 3.3C8.9 1.4 7.5 0 5.7 0C3.9 0 2.5 1.4 2.5 3.2C2.5 5 3.9 6.4 5.7 6.4ZM5.5 9.9L5.8 9.7C5.6 9.2 5.5 8.7 5.5 8.2C4.1 8.1 2.7 7.5 1.8 6.3C0.7 7.1 0 8.3 0 9.7C0 10.5 0.6 11.1 1.4 11.1H4.2C4.6 10.6 5 10.2 5.5 9.9Z" fill="#00AAFF"/>
</g>
<defs>
<clipPath id="clip0_5812_5344">
<rect width="16" height="16" fill="white"/>
</clipPath>
</defs>
</svg>
